<?xml version="1.0"?>
<svg xmlns="http://www.w3.org/2000/svg" xmlns:xlink="http://www.w3.org/1999/xlink" version="1.1" id="Capa_1" x="0px" y="0px" viewBox="0 0 512 512" style="enable-background:new 0 0 512 512;" xml:space="preserve" width="512px" height="512px"><g><g>
	<g>
		<path d="M511.277,197.276c-1.476-4.54-5.054-8.089-9.608-9.523l-145.236-45.767L268.025,18c-2.772-3.886-7.251-6.194-12.025-6.194    c-4.774,0-9.253,2.308-12.025,6.194l-88.409,123.986L10.331,187.754c-4.554,1.435-8.132,4.983-9.608,9.523    c-1.475,4.539-0.665,9.513,2.175,13.35l90.597,122.395l-1.353,152.272c-0.042,4.773,2.225,9.273,6.088,12.079    c3.863,2.807,8.844,3.573,13.37,2.057L256,451.088l144.401,48.341c1.531,0.513,3.113,0.764,4.688,0.764    c3.08,0,6.126-0.964,8.682-2.821c3.862-2.806,6.13-7.306,6.088-12.079l-1.353-152.272l90.597-122.395    C511.942,206.79,512.752,201.816,511.277,197.276z M391.822,319.421c-1.908,2.579-2.926,5.71-2.898,8.918l1.212,136.504    l-129.447-43.335c-1.521-0.51-3.104-0.764-4.689-0.764c-1.584,0-3.168,0.255-4.689,0.764l-129.447,43.335l1.213-136.504    c0.029-3.208-0.989-6.339-2.898-8.918l-81.216-109.72l130.197-41.029c3.06-0.964,5.724-2.899,7.586-5.512L256,52.014    l79.254,111.147c1.863,2.612,4.525,4.547,7.586,5.512l130.197,41.029L391.822,319.421z" data-original="#000000" class="active-path" data-old_color="#000000" fill="#4CEAAE"/>
	</g>
</g><g>
	<g>
		<path d="M256,221.538c-8.157,0-14.769,6.613-14.769,14.769v78.769c0,8.157,6.613,14.769,14.769,14.769    c8.157,0,14.769-6.613,14.769-14.769v-78.769C270.769,228.15,264.157,221.538,256,221.538z" data-original="#000000" class="active-path" data-old_color="#000000" fill="#4CEAAE"/>
	</g>
</g><g>
	<g>
		<path d="M344.615,221.538h-39.385c-8.157,0-14.769,6.613-14.769,14.769v78.769c0,8.157,6.613,14.769,14.769,14.769    S320,323.233,320,315.076v-24.615h24.615c19.002,0,34.462-15.459,34.462-34.462S363.618,221.538,344.615,221.538z     M344.615,260.922H320v-9.846h24.615c2.715,0,4.923,2.208,4.923,4.923C349.539,258.714,347.33,260.922,344.615,260.922z" data-original="#000000" class="active-path" data-old_color="#000000" fill="#4CEAAE"/>
	</g>
</g><g>
	<g>
		<path d="M211.955,222.478c-7.639-2.862-16.151,1.005-19.015,8.643l-15.71,41.892l-15.71-41.892    c-2.864-7.639-11.376-11.507-19.015-8.643c-7.637,2.864-11.507,11.377-8.643,19.015l29.538,78.769    c2.162,5.764,7.673,9.583,13.829,9.583s11.668-3.819,13.829-9.583l29.538-78.769C223.463,233.855,219.593,225.342,211.955,222.478    z" data-original="#000000" class="active-path" data-old_color="#000000" fill="#4CEAAE"/>
	</g>
</g></g> </svg>
