<?xml version="1.0"?>
<svg xmlns="http://www.w3.org/2000/svg" xmlns:xlink="http://www.w3.org/1999/xlink" version="1.1" id="Capa_1" x="0px" y="0px" width="512px" height="512px" viewBox="0 0 601.232 601.232" style="enable-background:new 0 0 601.232 601.232;" xml:space="preserve"><g><g>
	<g>
		<path d="M196.918,0l-34.157,136.586c34.32-20.65,74.396-32.737,117.236-32.737c42.921,0,82.916,12.087,117.236,32.737L363.076,0    h-57.681v44.217h-52.891V0H196.918z" data-original="#000000" class="active-path" data-old_color="#000000" fill="#4CEAAE"/>
		<path d="M468.56,266.425h-20.205c-15.549-76.658-83.313-134.353-164.527-134.353c-92.761,0-167.941,75.18-167.941,167.941    c0,92.761,75.175,167.941,167.937,167.941c81.214,0,148.983-57.695,164.527-134.354h20.206c9.251,0,16.791-7.511,16.791-16.791    v-33.589C485.352,273.937,477.807,266.425,468.56,266.425z M283.822,434.367c-74.129,0-134.354-60.287-134.354-134.354    c0-74.1,60.225-134.353,134.354-134.353c74.066,0,134.353,60.258,134.353,134.353C418.175,374.08,357.889,434.367,283.822,434.367    z" data-original="#000000" class="active-path" data-old_color="#000000" fill="#4CEAAE"/>
		<polygon points="207.083,318.001 266.361,318.001 266.361,392.053 307.489,392.053 307.489,277.303 207.083,277.303   " data-original="#000000" class="active-path" data-old_color="#000000" fill="#4CEAAE"/>
		<path d="M162.761,464.646l34.157,136.586h55.587v-43.629h52.891v43.629h57.676l34.157-136.586    c-34.319,20.646-74.396,32.737-117.236,32.737C237.076,497.384,197.081,485.297,162.761,464.646z" data-original="#000000" class="active-path" data-old_color="#000000" fill="#4CEAAE"/>
	</g>
</g></g> </svg>
